<svg width="246" height="174" viewBox="0 0 246 174" fill="none" xmlns="http://www.w3.org/2000/svg">
<g clip-path="url(#clip0_35_316)">
<path d="M243.741 141.658C245.394 139.387 247.932 134.479 241.434 111.384C237.713 98.1432 235.848 91.5227 232.224 88.2606C223.101 80.0812 207.45 79.5808 203.441 79.4557C195.51 79.2055 190.713 80.6586 185.589 77.2521C183.022 75.5392 180.955 72.9988 178.677 67.3406C174.158 56.1011 175.581 49.4517 174.072 39.2708C172.976 31.8708 171.188 19.8134 163.132 11.7495C156.075 4.68631 147.125 3.60856 130.311 1.83796C107.642 -0.548504 88.7134 -2.55005 74.4662 8.99734C65.17 16.5224 61.5457 26.8188 60.0748 31.0144C53.5472 49.5576 60.9689 61.6727 52.0187 69.5442C50.8458 70.5738 50.5766 70.4968 34.7432 75.5969C20.5633 80.1678 13.4493 82.4676 12.2861 83.3048C2.23994 90.5316 1.41318 103.994 0.192264 124.038C-0.721019 139.011 1.74004 143.448 4.22033 146.055C7.16206 149.154 11.2574 150.886 20.3422 152.108C37.6465 154.437 51.0766 151.954 68.7077 149.356C78.6769 147.884 87.9251 146.527 98.0674 145.507C119.928 143.303 136.916 143.582 151.038 143.852C180.542 144.429 195.289 144.718 202.278 146.604C209.594 148.576 221.139 152.522 233.368 148.259C236.608 147.133 240.866 145.584 243.731 141.658H243.741Z" fill="#2B3A49"/>
<path d="M245.658 129.908C245.947 131.405 246.255 133.996 245.658 137.082C245.533 137.732 245.428 140.633 243.705 143.461C242.059 146.155 239.778 147.342 239.384 147.642C238.354 148.426 237.334 148.973 235.323 149.748C232.82 150.718 230.087 152.38 225.776 152.989C223.36 153.329 220.473 153.216 217.057 152.7C213.89 152.225 211.638 151.213 211.157 151.007C201.033 146.775 166.734 145.701 152.51 145.309C141.558 145.01 136.082 144.855 132.964 144.886C115.506 145.051 101.349 146.63 92.5725 147.838C80.6005 149.489 83.9592 149.737 58.8218 153.959C58.8218 153.959 45.6372 156.178 24.1472 155.858C23.1945 155.848 17.9688 155.724 11.7903 153.329C6.92063 151.44 5.22684 149.613 4.78414 149.108C1.62753 145.546 0.771007 140.85 0.357183 138.558C-0.0855122 136.091 -0.133632 133.985 -0.0951372 132.54C81.8227 131.663 163.741 130.786 245.658 129.908Z" fill="white"/>
<path d="M178.138 113.79C190.915 113.857 201.028 113.915 207.469 120.892C212.391 126.223 212.699 132.93 213.151 142.678C213.612 152.714 213.987 160.98 208.421 166.831C202.614 172.922 193.837 172.73 184.291 172.518C177.85 172.374 170.928 172.22 165.372 167.312C161.911 164.252 160.584 160.778 158.748 155.948C157.037 151.444 154.028 143.553 155.912 133.69C156.662 129.754 158.517 120.026 166.323 115.695C167.602 114.993 170.236 113.761 178.148 113.8L178.138 113.79Z" fill="#1E1E1E"/>
<path d="M55.5564 173.384C43.8184 171.488 34.5317 169.978 29.6577 162.356C25.9276 156.535 26.6486 150.058 27.6965 140.647C28.7732 130.947 29.6577 122.97 35.6565 118.168C41.9053 113.164 49.9518 114.608 58.6905 116.186C64.5932 117.245 70.9285 118.39 75.3026 123.904C78.0232 127.329 78.725 130.851 79.6864 135.759C80.59 140.33 82.1666 148.326 78.9653 157.516C77.6867 161.182 74.5335 170.247 66.7081 173.278C65.4295 173.769 62.8243 174.577 55.5564 173.394V173.384Z" fill="#1E1E1E"/>
<path d="M124.562 15.8199C137.204 15.7141 141.386 16.0605 146.394 17.8022C150.038 19.0725 152.922 22.1036 155.989 24.9135C157.777 26.559 159.748 29.3785 162.766 46.6034C163.776 52.3578 166.929 59.8251 167.102 69.7463C148.788 70.1408 130.465 70.5353 112.151 70.9395C110.392 52.6946 108.642 34.4594 106.883 16.2145C113.709 15.9643 119.679 15.8584 124.572 15.8199H124.562Z" fill="white"/>
<path d="M240.078 90.2333C244.741 92.3695 245.192 97.7776 245.25 99.1055C245.269 99.4808 245.423 105.793 241.184 107.978C236.896 110.191 230.666 106.833 228.628 102.06C228.484 101.723 226.331 96.44 229.734 92.4465C232.272 89.4731 236.646 88.6551 240.078 90.2333Z" fill="white"/>
<path d="M188.925 131.65C195.625 134.72 196.289 142.495 196.356 144.41C196.375 144.949 196.606 154.033 190.511 157.17C184.349 160.345 175.389 155.524 172.457 148.663C172.245 148.172 169.159 140.59 174.053 134.845C177.696 130.563 183.993 129.398 188.915 131.66L188.925 131.65Z" fill="white"/>
<path d="M65.5834 140.176C68.2175 146.979 63.478 152.56 62.2475 153.869C61.9014 154.235 55.9795 160.364 49.6153 158.084C43.1743 155.765 40.1268 146.2 42.6744 139.589C42.857 139.117 45.7699 131.919 53.0474 131.64C58.4694 131.429 63.6511 135.162 65.593 140.166L65.5834 140.176Z" fill="white"/>
<path d="M98.2885 16.0316C99.1249 34.2765 99.9612 52.5214 100.798 70.7663C90.9149 70.4872 81.0419 70.2082 71.1592 69.9291C69.3038 62.6927 69.448 57.0153 69.9094 53.2142C70.6496 47.0652 75.7736 25.1444 77.4272 22.7099C79.7729 19.236 85.0891 15.7141 98.2981 16.022L98.2885 16.0316Z" fill="white"/>
</g>
<defs>
<clipPath id="clip0_35_316">
<rect width="246" height="174" fill="white" transform="matrix(-1 0 0 1 246 0)"/>
</clipPath>
</defs>
</svg>
